<?xml version="1.0" encoding="utf-8"?><svg xmlns="http://www.w3.org/2000/svg" xmlns:xlink="http://www.w3.org/1999/xlink"><symbol fill="none" viewBox="0 0 16 12" id="burger__icon" xmlns="http://www.w3.org/2000/svg"><path d="M15 0H1a1 1 0 1 0 0 2h14a1 1 0 1 0 0-2ZM15 5H1a1 1 0 0 0 0 2h14a1 1 0 1 0 0-2ZM15 10H1a1 1 0 1 0 0 2h14a1 1 0 1 0 0-2Z" fill="#fff"/></symbol><symbol viewBox="0 0 24 24" id="phone__icon" xmlns="http://www.w3.org/2000/svg"><path d="M10 2.5h-.5v.527c0 .212 0 .418.023.588a.99.99 0 0 0 .27.592.99.99 0 0 0 .592.27c.17.023.376.023.588.023H13.027c.212 0 .418 0 .588-.023a.99.99 0 0 0 .592-.27.99.99 0 0 0 .27-.592c.023-.17.023-.376.023-.588V2.5H10Z" stroke="#101010"/><rect x="6.5" y="2.5" width="11" height="19" rx="1.5" stroke="#101010"/><circle cx="12" cy="18" r="1" fill="#101010"/></symbol><symbol viewBox="0 0 14 8" id="scroll-arrow__icon" xmlns="http://www.w3.org/2000/svg"><path d="M7 6.5 13.044.662a.576.576 0 0 1 .792 0 .524.524 0 0 1 0 .762L7 8 .164 1.424a.524.524 0 0 1 0-.762.576.576 0 0 1 .792 0L7 6.5Z"/></symbol></svg>